HIERARCHY
ROOT Hips
{
	OFFSET 0.000000 0.000000 0.000000
	CHANNELS 6 Xposition Yposition Zposition Xrotation Yrotation Zrotation
	JOINT LeftUpLeg_virtual
	{
		OFFSET 0.000000 0.000000 0.000000
		CHANNELS 3 Xrotation Yrotation Zrotation
		JOINT LeftUpLeg
		{
			OFFSET 10.205400 -3.823500 0.155100
			CHANNELS 3 Xrotation Yrotation Zrotation
			JOINT LeftLeg
			{
				OFFSET 0.708757 -12.982077 0.567790
				CHANNELS 3 Xrotation Yrotation Zrotation
				JOINT LeftFoot
				{
					OFFSET -0.708756 -10.717838 -2.184338
					CHANNELS 3 Xrotation Yrotation Zrotation
					JOINT LeftToeBase
					{
						OFFSET 0.108149 -7.191104 7.560241
						CHANNELS 3 Xrotation Yrotation Zrotation
						JOINT LeftToe_End
						{
							OFFSET 0.070230 0.081724 4.490308
							CHANNELS 3 Xrotation Yrotation Zrotation
							End Site
							{
								OFFSET 0 0 0
							}
						}
					}
				}
			}
		}
	}
	JOINT RightUpLeg_virtual
	{
		OFFSET 0.000000 0.000000 0.000000
		CHANNELS 3 Xrotation Yrotation Zrotation
		JOINT RightUpLeg
		{
			OFFSET -10.205400 -3.823500 0.005500
			CHANNELS 3 Xrotation Yrotation Zrotation
			JOINT RightLeg
			{
				OFFSET -0.708756 -12.982134 0.610632
				CHANNELS 3 Xrotation Yrotation Zrotation
				JOINT RightFoot
				{
					OFFSET 0.708754 -10.717769 -1.945823
					CHANNELS 3 Xrotation Yrotation Zrotation
					JOINT RightToeBase
					{
						OFFSET -0.108140 -7.191069 7.372968
						CHANNELS 3 Xrotation Yrotation Zrotation
						JOINT RightToe_End
						{
							OFFSET -0.070227 0.081735 4.479403
							CHANNELS 3 Xrotation Yrotation Zrotation
							End Site
							{
								OFFSET 0 0 0
							}
						}
					}
				}
			}
		}
	}
	JOINT Spine_virtual
	{
		OFFSET 0.000000 0.000000 0.000000
		CHANNELS 3 Xrotation Yrotation Zrotation
		JOINT Spine
		{
			OFFSET 0.000000 6.876099 0.125700
			CHANNELS 3 Xrotation Yrotation Zrotation
			JOINT Spine1
			{
				OFFSET 0.000000 5.730043 0.104720
				CHANNELS 3 Xrotation Yrotation Zrotation
				JOINT Spine1_split
				{
					OFFSET 0.000000 5.730043 0.104720
					CHANNELS 3 Xrotation Yrotation Zrotation
					JOINT Spine2
					{
						OFFSET 0.000000 5.730043 0.104720
						CHANNELS 3 Xrotation Yrotation Zrotation
						JOINT Neck_virtual
						{
							OFFSET 0.000000 0.000000 0.000000
							CHANNELS 3 Xrotation Yrotation Zrotation
							JOINT Neck
							{
								OFFSET 0.000000 10.314075 0.188496
								CHANNELS 3 Xrotation Yrotation Zrotation
								JOINT Head
								{
									OFFSET 0.000000 7.643700 -2.377400
									CHANNELS 3 Xrotation Yrotation Zrotation
									JOINT HeadTop_End
									{
										OFFSET 0.000000 43.788605 -13.619600
										CHANNELS 3 Xrotation Yrotation Zrotation
										End Site
										{
											OFFSET 0 0 0
										}
									}
								}
							}
						}
						JOINT LeftShoulder_virtual
						{
							OFFSET 0.000000 0.000000 0.000000
							CHANNELS 3 Xrotation Yrotation Zrotation
							JOINT LeftShoulder
							{
								OFFSET 2.196100 4.412489 0.087492
								CHANNELS 3 Xrotation Yrotation Zrotation
								JOINT LeftShoulder_split
								{
									OFFSET 2.196100 4.412489 0.087492
									CHANNELS 3 Xrotation Yrotation Zrotation
									JOINT LeftArm
									{
										OFFSET 8.771219 -2.981674 -0.026999
										CHANNELS 3 Xrotation Yrotation Zrotation
										JOINT LeftForeArm
										{
											OFFSET 8.512804 0.000000 -0.000000
											CHANNELS 3 Xrotation Yrotation Zrotation
											JOINT LeftHand
											{
												OFFSET 18.484802 0.000000 -0.000000
												CHANNELS 3 Xrotation Yrotation Zrotation
												End Site
												{
													OFFSET 0 0 0
												}
											}
										}
									}
								}
							}
						}
						JOINT RightShoulder_virtual
						{
							OFFSET 0.000000 0.000000 0.000000
							CHANNELS 3 Xrotation Yrotation Zrotation
							JOINT RightShoulder
							{
								OFFSET -2.196100 4.412496 0.070690
								CHANNELS 3 Xrotation Yrotation Zrotation
								JOINT RightShoulder_split
								{
									OFFSET -2.196100 4.412496 0.070690
									CHANNELS 3 Xrotation Yrotation Zrotation
									JOINT RightArm
									{
										OFFSET -8.771282 -2.981682 -0.094208
										CHANNELS 3 Xrotation Yrotation Zrotation
										JOINT RightForeArm
										{
											OFFSET -8.494598 0.000000 0.000000
											CHANNELS 3 Xrotation Yrotation Zrotation
											JOINT RightHand
											{
												OFFSET -18.483803 0.000000 0.000001
												CHANNELS 3 Xrotation Yrotation Zrotation
												End Site
												{
													OFFSET 0 0 0
												}
											}
										}
									}
								}
							}
						}
					}
				}
			}
		}
	}
}
MOTION
Frames: 10
Frame Time: 0.03333333
1.569638 32.501106 -3.279840 0.000000 0.000000 0.000000 17.133526 -42.978801 13.228264 -42.261980 20.424907 15.482514 20.289844 -20.837645 -0.898368 7.516947 -14.604275 3.163151 8.780227 -1.884513 2.632415 0.000000 0.000000 0.000000 16.427667 -41.710066 12.480400 10.587845 -7.701896 -12.939996 19.247581 11.442776 -1.975457 -44.233009 -26.892210 24.847233 -3.055856 13.971769 -12.032690 0.000000 0.000000 0.000000 14.805630 -31.330378 9.180985 7.916362 7.948928 -5.517280 14.375094 2.420320 -5.958425 0.355706 0.699735 0.121365 0.000000 0.000000 0.000000 15.054461 4.311219 -5.096510 -37.970217 13.633231 14.835628 -51.653692 -27.046045 -8.475160 0.000000 0.000000 0.000000 13.913789 2.299073 -5.314900 4.035579 2.800301 -13.887958 0.702927 2.463382 -2.678034 -16.867880 -9.475341 -30.704811 30.363876 -52.157951 15.146474 0.000000 0.000000 0.000000 13.299187 3.564649 -3.944819 -11.407305 21.108850 14.993476 18.735953 -8.171541 5.165146 22.261799 -34.856556 68.060397 -11.923886 56.455560 3.881970 0.000000 0.000000 0.000000 
2.183153 32.274620 -3.852343 0.000000 0.000000 0.000000 18.262283 -42.833704 13.797926 -43.175166 17.720968 15.646963 22.157742 -20.995071 -0.525918 7.107979 -13.638581 2.912056 7.833194 -1.776566 3.007424 0.000000 0.000000 0.000000 15.971793 -41.252126 12.501092 9.176853 -6.904810 -14.336796 20.866808 12.122941 -2.168679 -44.314926 -26.393051 25.193802 -0.123957 13.360987 -12.575052 0.000000 0.000000 0.000000 15.565526 -31.753051 10.056856 8.084879 7.786620 -5.065733 14.330662 2.085208 -5.938957 0.348537 0.417750 0.128244 0.000000 0.000000 0.000000 15.242486 4.012828 -5.067979 -37.831014 14.339729 15.316177 -50.673928 -25.665602 -8.185145 0.000000 0.000000 0.000000 14.190521 2.004118 -5.320397 3.726161 1.529781 -13.619672 0.416899 -0.678086 -2.576385 -17.638794 -6.562172 -31.621221 26.057762 -47.999260 12.740686 0.000000 0.000000 0.000000 13.349450 3.183351 -4.083289 -11.414733 21.095487 15.188421 19.548852 -9.342598 4.380360 21.287186 -35.203949 68.809382 -13.542044 59.147690 5.483136 0.000000 0.000000 0.000000 
2.899640 31.580374 -4.390673 0.000000 0.000000 0.000000 19.208923 -42.367076 14.953311 -45.730347 14.481770 15.552879 25.592813 -20.255411 0.398840 5.858025 -11.440657 0.454919 5.633556 -1.512632 4.260490 0.000000 0.000000 0.000000 16.095962 -41.533451 13.681495 3.656967 -5.706796 -16.941821 26.361738 13.185581 -2.665665 -42.840453 -25.293661 26.493916 2.950896 12.978667 -14.475408 0.000000 0.000000 0.000000 16.862610 -32.533895 11.898819 8.473533 7.194272 -4.616741 14.276420 1.464058 -6.016300 0.286315 0.194375 0.045107 0.000000 0.000000 0.000000 15.611202 3.411549 -5.213386 -37.886291 14.670012 16.271274 -49.603416 -23.018074 -8.004343 0.000000 0.000000 0.000000 14.611486 1.373020 -5.570352 3.324632 -0.302677 -12.427052 0.398420 -3.677835 -2.608925 -19.997648 -5.103003 -33.278679 26.561977 -40.168151 13.926080 0.000000 0.000000 0.000000 13.649895 2.441239 -4.356910 -11.520208 20.649298 14.960092 18.427734 -8.027803 4.381785 17.291616 -33.501648 66.808082 -15.889713 59.014603 8.392344 0.000000 0.000000 0.000000 
3.525736 30.533190 -4.806694 0.000000 0.000000 0.000000 20.260981 -42.158065 16.903053 -50.165936 10.563811 14.885023 30.512497 -19.059899 1.619995 5.324814 -8.452952 -4.608501 4.178666 -1.099984 5.002601 0.000000 0.000000 0.000000 17.280995 -42.280811 16.164981 -5.283988 -3.913900 -20.420502 34.968280 14.269717 -3.594353 -40.875031 -23.457836 27.745622 5.607177 12.773239 -17.289038 0.000000 0.000000 0.000000 18.759487 -33.259661 14.442543 8.985968 6.248517 -4.366505 14.283539 0.698560 -6.046364 0.231468 -0.017510 0.048777 0.000000 0.000000 0.000000 15.977520 2.748697 -5.433387 -37.783910 14.933435 17.076533 -49.441188 -19.382740 -8.379497 0.000000 0.000000 0.000000 15.082152 0.597170 -5.880167 2.998959 -2.044483 -10.904292 0.352688 -5.348191 -3.290702 -24.287733 -5.427382 -35.469900 28.735791 -30.222347 15.959944 0.000000 0.000000 0.000000 14.203553 1.586268 -4.649565 -11.660851 19.869657 14.844976 15.830806 -5.054828 4.758240 11.031020 -29.919770 62.714537 -17.442155 55.507158 11.270091 0.000000 0.000000 0.000000 
4.075889 29.132729 -5.073099 0.000000 0.000000 0.000000 21.495553 -42.477787 19.696713 -56.401701 5.756246 13.795953 36.627303 -17.343823 2.949576 6.821400 -5.114659 -11.736847 3.876933 -0.596091 4.529658 0.000000 0.000000 0.000000 19.421199 -43.522030 19.654351 -16.972651 -1.244964 -24.396304 45.699778 14.636785 -4.744842 -38.933366 -21.128719 28.436521 8.228861 12.625244 -20.411209 0.000000 0.000000 0.000000 21.000737 -34.151994 17.315930 9.615876 5.093423 -4.414899 14.544954 0.087469 -5.951088 0.181343 -0.253234 0.019605 0.000000 0.000000 0.000000 16.318913 2.300051 -5.532875 -36.996088 15.445571 17.150769 -50.765811 -15.190288 -9.851448 0.000000 0.000000 0.000000 15.505001 0.014865 -6.103406 2.713153 -3.878772 -9.800093 0.873154 -5.440341 -3.359684 -29.096958 -7.191066 -37.832145 30.393396 -21.637025 17.391480 0.000000 0.000000 0.000000 14.966526 0.945546 -4.808987 -11.973753 19.051310 15.513837 12.749950 -2.083648 5.113772 3.836439 -25.345775 57.566637 -17.310725 49.126422 13.128173 0.000000 0.000000 0.000000 
4.477365 27.521400 -5.134892 0.000000 0.000000 0.000000 23.082513 -42.953192 22.982770 -63.780532 0.319556 12.135922 42.845510 -15.018073 4.090503 10.143658 -2.251418 -19.590922 3.128392 -0.137291 3.161203 0.000000 0.000000 0.000000 22.406751 -45.172761 23.787423 -29.844395 2.251660 -28.372725 57.466473 14.292257 -5.771685 -37.470305 -18.484408 28.893787 10.655121 12.544090 -23.519623 0.000000 0.000000 0.000000 23.579970 -35.013346 20.075726 10.133004 3.952503 -4.672437 15.127117 -0.157624 -5.666417 0.088642 -0.485979 0.076594 0.000000 0.000000 0.000000 16.704404 2.227419 -5.414341 -35.359363 16.435453 16.055020 -53.615749 -11.042246 -12.760677 0.000000 0.000000 0.000000 15.962224 -0.131173 -6.194781 2.374374 -6.008286 -9.820476 1.953114 -3.669394 -3.109731 -32.954082 -9.588118 -39.414153 30.865092 -18.166111 18.502190 0.000000 0.000000 0.000000 15.874809 0.761117 -4.757919 -12.566179 18.651534 17.625827 10.096448 -0.437445 5.468959 -3.455757 -20.772969 52.061618 -15.921458 42.054656 14.241875 0.000000 0.000000 0.000000 
4.758211 25.783455 -5.024660 0.000000 0.000000 0.000000 24.677728 -43.163401 26.030353 -71.305536 -5.140089 9.992802 48.568208 -12.394974 4.710028 13.946243 -0.351907 -26.176051 0.992041 0.185312 1.080406 0.000000 0.000000 0.000000 25.681458 -47.022362 27.814938 -41.800966 6.377912 -31.894313 69.270078 13.834003 -6.667880 -37.056208 -15.901022 30.078507 11.907734 12.753386 -26.643815 0.000000 0.000000 0.000000 26.015258 -35.630488 22.492194 10.532095 2.977060 -4.917349 15.815440 -0.012916 -5.305349 -0.000587 -0.631968 0.111831 0.000000 0.000000 0.000000 17.093587 2.527536 -5.162645 -33.145942 17.998587 13.505424 -57.137903 -7.312039 -16.997178 0.000000 0.000000 0.000000 16.314762 0.160588 -6.156464 1.850695 -8.812833 -11.112434 2.643030 -1.129728 -3.424854 -35.095824 -11.904395 -40.032879 29.231560 -21.291728 19.325166 0.000000 0.000000 0.000000 16.897929 1.041168 -4.552935 -13.440439 18.924771 21.053351 8.235828 0.059225 4.985274 -9.891381 -16.640424 47.587714 -13.951189 36.599695 14.699856 0.000000 0.000000 0.000000 
4.919130 23.982292 -4.871078 0.000000 0.000000 0.000000 25.483525 -42.719988 27.838251 -78.426145 -9.859832 8.115702 54.014594 -9.848238 4.685987 16.367683 0.665116 -29.791772 -2.022535 0.334922 -1.489753 0.000000 0.000000 0.000000 28.192273 -48.420280 30.722102 -50.673983 10.112789 -34.695124 79.849146 13.588984 -7.484590 -38.320083 -13.885502 32.442886 11.697854 13.457568 -29.745836 0.000000 0.000000 0.000000 27.712383 -36.296206 24.345374 10.727323 2.302704 -4.832145 16.336462 0.455354 -5.043588 -0.080137 -0.760499 0.018493 0.000000 0.000000 0.000000 17.503803 3.063489 -4.854072 -30.735776 20.078726 9.704990 -60.082620 -4.096061 -21.965321 0.000000 0.000000 0.000000 16.603748 0.772984 -6.062093 1.024687 -12.162452 -12.903608 3.590105 0.836202 -3.804624 -35.823550 -14.680160 -39.601485 26.798095 -33.280233 20.559530 0.000000 0.000000 0.000000 18.017387 1.618505 -4.322186 -14.613968 20.231420 25.169653 6.855983 0.328319 4.098929 -15.101309 -13.730766 44.458647 -12.390206 35.979661 14.905134 0.000000 0.000000 0.000000 
4.893991 22.294743 -4.723701 0.000000 0.000000 0.000000 25.253813 -41.981314 27.939109 -84.358102 -13.558237 6.758923 60.229086 -8.137984 4.108179 16.906615 0.841786 -30.746038 -4.606987 0.393057 -4.388221 0.000000 0.000000 0.000000 29.339692 -48.968239 31.775433 -55.403230 12.391028 -36.834763 88.495285 13.670426 -8.368069 -41.766907 -13.029105 35.475275 11.026885 14.436452 -32.625174 0.000000 0.000000 0.000000 28.699857 -36.816530 25.385184 10.476795 1.948685 -4.203808 16.518783 1.044754 -4.911879 -0.088477 -0.808740 0.009523 0.000000 0.000000 0.000000 17.842027 3.539853 -4.578233 -28.608225 22.381809 5.223672 -61.044420 -2.247078 -26.935676 0.000000 0.000000 0.000000 16.843861 1.398574 -5.930322 0.091059 -15.341366 -13.945201 4.963162 1.280710 -4.232124 -36.811830 -18.183350 -37.751193 25.798958 -52.757993 23.116162 0.000000 0.000000 0.000000 19.042825 2.172288 -4.121264 -15.885026 22.722820 28.813802 6.624325 0.501178 3.435005 -20.084514 -12.001174 42.186015 -12.183706 43.086729 15.344293 0.000000 0.000000 0.000000 
4.709978 20.958134 -4.512995 0.000000 0.000000 0.000000 24.077832 -41.507452 26.474054 -88.222009 -16.091456 6.244968 67.472591 -7.604652 3.082422 15.418932 0.581379 -29.939444 -5.876815 0.331091 -7.232161 0.000000 0.000000 0.000000 28.343813 -48.702889 30.329742 -55.784450 12.507852 -38.378088 94.662850 13.638964 -9.014159 -46.813239 -13.724199 38.217019 10.418080 15.540026 -34.655383 0.000000 0.000000 0.000000 28.521828 -37.094368 25.229865 9.714342 1.814128 -2.976885 16.368892 1.423681 -4.882241 -0.032047 -0.632259 -0.045645 0.000000 0.000000 0.000000 17.981725 3.680307 -4.335413 -26.954693 24.656551 0.989460 -58.895423 -2.447129 -30.927301 0.000000 0.000000 0.000000 16.956057 1.732702 -5.712125 -0.574599 -17.675976 -12.756127 6.708811 -0.176392 -4.422347 -40.572065 -22.505455 -35.161568 29.801833 -74.376710 30.094531 0.000000 0.000000 0.000000 19.757374 2.428923 -3.946539 -16.933497 26.248796 30.525980 8.346717 1.500575 2.470610 -26.624424 -11.119484 39.843919 -15.644350 59.464091 18.061192 0.000000 0.000000 0.000000 
